<?xml version="1.0" encoding="utf-8"?>
<svg version="1.1" id="Capa_1" xmlns="http://www.w3.org/2000/svg" xmlns:xlink="http://www.w3.org/1999/xlink" x="0px" y="0px"
	 viewBox="231 -231 512 512" enable-background="new 231 -231 512 512" xml:space="preserve">
<path fill="#4ab061" d="M651.041-231L651.041-231l-328.082,0C272.251-231,231-189.749,231-139.041V189.04c0,50.709,41.251,91.96,91.959,91.96
	h328.082C701.749,281,743,239.749,743,189.041v-328.082C743-189.749,701.749-231,651.041-231z M310.31-118.561h35.589
	c14.421-42.69,75.006-42.755,89.449,0H663.69c19.922,0,19.928,30.118,0,30.118H435.348c-14.422,42.69-75.006,42.755-89.449,0H310.31
	C290.388-88.443,290.383-118.561,310.31-118.561z M663.69,168.561H499.599c-14.422,42.69-75.006,42.755-89.449,0h-99.84
	c-19.922,0-19.927-30.118,0-30.118h99.84c14.421-42.69,75.006-42.755,89.449,0H663.69
	C683.612,138.443,683.618,168.561,663.69,168.561z M663.69,40.059h-35.589c-14.422,42.69-75.006,42.755-89.45,0H310.31
	c-19.922,0-19.927-30.118,0-30.118h228.342c14.421-42.69,75.006-42.755,89.45,0h35.589C683.612,9.941,683.618,40.059,663.69,40.059z
	 M454.875,170.568c-22.569,0-22.581-34.133,0-34.133C477.443,136.435,477.455,170.569,454.875,170.568z M390.624-120.569
	c22.568,0,22.58,34.134,0,34.133C368.055-86.436,368.043-120.569,390.624-120.569z M583.376,42.066
	c-22.569,0-22.581-34.133,0-34.133C605.945,7.933,605.957,42.067,583.376,42.066z"/>
</svg>
