<svg id="Layer_1" enable-background="new 0 0 512 512" height="512" viewBox="0 0 512 512" width="512" xmlns="http://www.w3.org/2000/svg"><path fill="#4ab061" d="m495.651 480h-74.492v-105.382c43.92-5.101 76.662-43.392 74.47-87.933.155-1.374.108.781.108-30.685 0-8.836-7.163-16-16-16s-16 7.164-16 16v13.195c-15.521 1.803-30.255 7.879-42.578 17.646v-39.416c43.924-5.102 76.662-43.394 74.47-87.933.155-1.374.108.781.108-30.685 0-8.836-7.163-16-16-16s-16 7.164-16 16v13.196c-15.521 1.803-30.255 7.879-42.578 17.646v-31.924c34.628-34.95 32.155-92.161-5.707-123.975-5.951-5-14.636-5.001-20.585 0-37.82 31.776-40.374 88.987-5.708 123.974v31.924c-12.254-9.714-26.892-15.778-42.321-17.617v-13.225c0-8.889-7.264-16.093-16.129-15.993-8.852-.099-16.129 7.092-16.129 15.993v13.194c-15.524 1.802-30.257 7.88-42.579 17.648v-31.924c34.631-34.953 32.154-92.161-5.707-123.974-5.95-5-14.635-5.001-20.585 0-37.82 31.776-40.374 88.987-5.708 123.974v31.924c-12.254-9.713-26.892-15.776-42.321-17.616v-13.226c0-8.836-7.163-16-16-16-9.51 0-16.258 7.482-16.258 16v13.196c-15.521 1.803-30.256 7.879-42.579 17.646v-31.925c34.627-34.947 32.16-92.159-5.708-123.974-5.949-5-14.634-5-20.585 0-37.817 31.776-40.372 88.987-5.707 123.975v31.923c-12.254-9.713-26.892-15.777-42.32-17.616v-13.225c0-8.836-7.163-16-16-16s-16 7.164-16 16v28.314c-3.509 45.467 29.566 85.107 74.32 90.304v39.416c-12.255-9.714-26.892-15.778-42.32-17.617v-13.223c0-8.836-7.163-16-16-16s-16 7.164-16 16v28.314c-3.509 45.467 29.565 85.106 74.32 90.304v105.382h-74.493c-8.837 0-16 7.164-16 16s7.163 16 16 16h479.301c8.837 0 16-7.164 16-16s-7.164-16-16-16zm-314.23-266.916c13.974 19.296 35.207 31.627 58.579 34.341v39.416c-12.254-9.714-26.892-15.779-42.321-17.618v-13.223c0-8.49-6.716-16-16.258-16-8.837 0-16 7.164-16 16v13.195c-15.521 1.803-30.256 7.88-42.579 17.647v-39.417c23.385-2.715 44.614-15.056 58.579-34.341zm149.158.001c13.934 19.242 35.143 31.619 58.579 34.341v39.416c-12.254-9.714-26.893-15.778-42.321-17.617v-13.225c0-8.49-6.716-16-16.258-16-8.837 0-16 7.164-16 16v13.194c-15.522 1.803-30.257 7.88-42.579 17.647v-39.417c23.338-2.71 44.585-15.017 58.579-34.339zm-207.737 161.533c23.385-2.716 44.614-15.056 58.579-34.341 14.004 19.335 35.254 31.632 58.579 34.341v105.382h-117.158zm149.158 0c23.338-2.711 44.585-15.018 58.579-34.341 13.975 19.296 35.207 31.627 58.579 34.341v105.382h-117.158z"/></svg>