<?xml version="1.0" encoding="utf-8"?>
<!-- Generator: Adobe Illustrator 19.1.1, SVG Export Plug-In . SVG Version: 6.00 Build 0)  -->
<svg version="1.1" id="Capa_1" xmlns="http://www.w3.org/2000/svg" xmlns:xlink="http://www.w3.org/1999/xlink" x="0px" y="0px"
	 viewBox="231 -231.001 512.001 512.001" enable-background="new 231 -231.001 512.001 512.001" xml:space="preserve">
<path fill="#4AB061" d="M534.414,118.412c26.144,26.144,26.144,68.683-0.001,94.827c-13.071,13.072-30.242,19.608-47.413,19.608
	c-17.171,0-34.341-6.536-47.413-19.608c-26.144-26.144-26.144-68.683,0-94.827C465.731,92.267,508.27,92.267,534.414,118.412z
	 M332.053,17.833c-2.902,2.902-4.533,6.838-4.533,10.942s1.631,8.04,4.533,10.942l47.22,47.22c2.902,2.902,6.838,4.533,10.942,4.533
	c4.105,0,8.04-1.631,10.943-4.533C424.046,64.049,454.532,51.444,487,51.444c32.468,0,62.955,12.605,85.843,35.493
	c2.902,2.902,6.838,4.533,10.943,4.533c4.104,0,8.04-1.631,10.942-4.533l47.22-47.22c2.902-2.902,4.533-6.838,4.533-10.942
	c0.002-4.105-1.629-8.04-4.531-10.942C556.511-67.605,417.491-67.605,332.053,17.833z M738.468-78.686
	C671.3-145.856,581.993-182.848,487-182.848c-94.992,0-184.298,36.992-251.467,104.162c-6.044,6.044-6.044,15.842,0,21.886
	l47.22,47.22c6.043,6.044,15.842,6.044,21.886,0c100.555-100.554,264.169-100.554,364.723,0c3.022,3.022,6.983,4.533,10.942,4.533
	c3.96,0,7.921-1.51,10.942-4.533l47.22-47.22C744.512-62.844,744.512-72.642,738.468-78.686z"/>
</svg>
